<?xml version="1.0" standalone="no"?>
<!DOCTYPE svg PUBLIC "-//W3C//DTD SVG 20010904//EN"
 "http://www.w3.org/TR/2001/REC-SVG-20010904/DTD/svg10.dtd">
<svg version="1.0" xmlns="http://www.w3.org/2000/svg"
 width="260.000000pt" height="260.000000pt" viewBox="0 0 260.000000 260.000000"
 preserveAspectRatio="xMidYMid meet">
<metadata>
Created by potrace 1.11, written by Peter Selinger 2001-2013
</metadata>
<g transform="translate(0.000000,260.000000) scale(0.100000,-0.100000)"
fill="#000000" stroke="none">
<path d="M1105 2585 c-100 -19 -192 -43 -255 -67 -503 -194 -823 -638 -847
-1173 -23 -514 272 -994 750 -1220 647 -306 1435 -15 1730 640 79 176 111 330
111 535 0 162 -9 225 -50 369 -159 548 -680 935 -1254 930 -63 -1 -146 -7
-185 -14z m480 -184 c559 -142 922 -694 830 -1261 -77 -474 -445 -848 -915
-931 -96 -17 -294 -17 -390 0 -235 42 -441 152 -612 327 -118 121 -205 262
-257 419 -215 643 177 1324 839 1459 41 8 86 17 100 20 14 3 84 3 155 1 104
-3 154 -9 250 -34z"/>
<path d="M1170 2394 c-111 -20 -229 -53 -301 -84 -417 -181 -682 -609 -656
-1060 35 -597 546 -1058 1141 -1027 300 16 575 151 771 379 477 555 281 1411
-391 1706 -132 58 -254 84 -409 88 -71 1 -141 1 -155 -2z m367 -673 l238 -219
3 204 2 204 70 0 70 0 0 -362 0 -362 -27 26 c-157 143 -453 408 -458 408 -3 0
-5 -90 -5 -200 l0 -200 -70 0 -70 0 0 360 c0 198 2 360 5 360 3 0 112 -98 242
-219z m-593 175 c102 -31 155 -103 156 -210 0 -83 -18 -135 -65 -181 -48 -48
-98 -65 -194 -65 l-71 0 0 -110 0 -110 -70 0 -70 0 0 345 0 345 133 0 c87 0
150 -5 181 -14z m229 -564 c38 -33 6 -112 -45 -112 -27 0 -68 37 -68 62 0 29
19 58 43 67 25 9 44 5 70 -17z m-399 -308 c27 -10 19 -32 -9 -26 -31 5 -35
-23 -5 -33 24 -8 42 -38 34 -59 -8 -20 -39 -29 -70 -22 -33 9 -31 28 3 24 34
-4 45 27 14 37 -32 10 -43 38 -25 63 16 23 30 27 58 16z m84 -72 c2 -60 0 -72
-13 -72 -12 0 -15 14 -15 76 0 56 3 75 13 72 8 -3 13 -30 15 -76z m136 -2 c4
0 6 17 4 37 -2 22 2 38 10 41 9 3 12 -16 12 -73 l0 -77 -47 42 -48 42 -3 -41
c-2 -28 -8 -41 -18 -41 -11 0 -14 16 -14 76 l0 75 48 -40 c27 -23 52 -41 56
-41z m165 71 c20 -13 5 -29 -22 -24 -30 6 -49 -18 -45 -54 3 -25 8 -28 41 -31
44 -4 46 -25 3 -30 -44 -5 -76 22 -76 65 0 60 55 102 99 74z m141 -6 c0 -10
-11 -15 -35 -15 -24 0 -35 -5 -35 -15 0 -10 10 -15 30 -15 20 0 30 -5 30 -15
0 -10 -10 -15 -30 -15 -20 0 -30 -5 -30 -15 0 -10 11 -15 35 -15 24 0 35 -5
35 -15 0 -11 -12 -15 -50 -15 l-50 0 0 75 0 75 50 0 c38 0 50 -4 50 -15z m130
-70 c0 -51 -3 -65 -15 -65 -11 0 -15 12 -15 49 0 27 -3 56 -6 65 -4 12 0 16
15 16 19 0 21 -6 21 -65z m115 41 c15 -22 15 -27 1 -55 -9 -17 -25 -35 -36
-41 -26 -14 -50 -1 -25 12 15 9 15 11 -4 25 -23 16 -28 52 -9 71 20 20 56 14
73 -12z m110 0 c15 -22 15 -27 1 -55 -9 -17 -25 -35 -36 -41 -26 -14 -50 -1
-25 12 15 9 15 11 -4 25 -23 16 -28 52 -9 71 20 20 56 14 73 -12z m105 15 c0
-25 -45 -121 -56 -121 -17 0 -17 -2 1 50 19 53 19 50 -5 50 -11 0 -20 7 -20
15 0 11 11 15 40 15 22 0 40 -4 40 -9z"/>
<path d="M770 1674 l0 -106 70 4 c56 3 74 8 94 27 34 32 42 78 22 124 -18 45
-46 57 -127 57 l-59 0 0 -106z"/>
<path d="M1497 983 c-4 -3 -7 -12 -7 -20 0 -15 26 -18 34 -4 7 11 -18 33 -27
24z"/>
<path d="M1607 983 c-4 -3 -7 -12 -7 -20 0 -15 26 -18 34 -4 7 11 -18 33 -27
24z"/>
</g>
</svg>
